<svg id="Calque_1" data-name="Calque 1" xmlns="http://www.w3.org/2000/svg" viewBox="0 0 754.92 490.65"><defs><style>.cls-1{fill:#fea10c;}.cls-2{fill:#f39605;}.cls-3{fill:#ed9910;}.cls-4{fill:#e99612;}.cls-5{fill:none;stroke:#0b0b0b;stroke-miterlimit:10;stroke-width:2px;}.cls-6{isolation:isolate;}</style></defs><title>Plan de travail 1</title><path class="cls-1" d="M623.69,324.66c1.79,7.45,1.86,14.43-4.72,20a29.29,29.29,0,0,1-6.25,4c-6.2,3-10,8.64-14.89,13.11-2.46,2.27-1.06,5.81-.25,8.59a27.64,27.64,0,0,1,1,8.86c-.15,4.58-1.15,8.33-6.51,9.77-4.61,1.24-6.78,4.58-6.89,9.72-.1,4.75-3,8.79-5.65,12.58A105.87,105.87,0,0,1,567.95,425c-8.16,8.28-17.5,13-29.33,12.2a14.29,14.29,0,0,0-8.23,1.7c-4.71,2.84-8.6.68-11.89-2-3-2.38-2.14-6-1.37-9.66,1.07-5.08-2.44-9.48-4-14.12a36.14,36.14,0,0,0-5.94-10.9,10,10,0,0,1-2-5.56c-1.13-13.83-3.83-27.06-11.51-39.06-5.47-8.55-3.13-17.46.55-26.18,1.67-3.95,2.6-8.19,5.43-11.62a3.88,3.88,0,0,0,.77-2.79c-2.53-14.24-3.09-29.13-13.28-40.9-1.52-1.75-2.69-3.81-4.18-5.59-3.53-4.21-5.33-8.36-2.45-14,2-3.92,1.59-8.73,2.59-13.11,1.11-4.84-5.59-10.75-10.31-9.12-5.29,1.82-8.14.47-10.73-4.41-3.31-6.23-8.05-7.21-15.91-4.15-4.32,1.69-8.6,3.53-12.76,5.59-2.59,1.28-5.41,1.73-7.73.69-5.69-2.58-10.78-1.15-15.73,1.5s-9.54,2.28-13.8-1.45c-5.25-4.61-10.46-9.26-15.77-13.8-2.71-2.32-2.91-5.9-4.57-8.58-3.27-5.3-6.71-10.69-11.91-14.5-1.42-1-2.55-2.16-2.37-4.07.3-3.23.09-6.19-2.44-8.75-1-1-.72-2.88.17-4.23,5.27-8,7-17.28,4-25.68-3.38-9.62,1.6-15.73,5.38-22.84,1.87-3.52,3.37-7.28,5.63-10.53,3.4-4.89,7-9.61,13.06-11.86,3.53-1.31,5-5.13,7.09-8.08,1.77-2.57-.06-5.63,1.12-8.28,1.42-4.85,4.07-8.68,8.94-10.59,3.57-1.4,4.25-5,5.84-7.78,1.74-3.06,2.86-4.56,6.81-2.2a15.53,15.53,0,0,0,15.74.19c9.43-5.06,19.37-7.77,30.15-7.08,5.65.36,11.22-.63,16.81-1.25,3.26-.36,5.05.25,5.55,4.73.43,3.93,2.61,7.22-1.5,10.43-.95.74.36,2,1.36,2.74,3.17,2.2,6.42,4,10.47,4.25,4.34.31,8.34,1.55,11.34,5.3,3.74,4.69,9.9,5.21,15,7.48,2.6,1.16,3.91-1.36,3.79-4.22-.26-6.4,7.08-11.13,12.59-7.76,7.85,4.81,16.82,6,25.28,8.83a5.38,5.38,0,0,0,4.83-.43c3.85-2.61,7.92-1.84,12-.87,1.29.31,2.51.92,3.87.62,4.09-.9,6.57.53,7.85,4.67,1.38,4.42,2.69,9-1.38,12.29-2.4,1.92-1.41,3.42-.87,5.06a16,16,0,0,0,2.76,5.24c5.32,6.36,5.72,15.41,12.1,21.32,2.12,2,2.87,5.52,2.9,8.83a13.17,13.17,0,0,0,4.21,9.86c2.92,2.63,4.29,6,5.33,9.39,1.21,3.93,3.54,6.48,6.65,8.91,5.61,4.39,11.17,8.8,13,16.45,1,4.18,5.25,5.49,9.58,5.14,8-.66,15.44-3.48,23.11-5.46,3.88-1,4.69,1.71,4.56,4.61-.21,4.53-1.92,8.81-3.8,12.8-2.48,5.27-4.59,10.67-6.89,16-3.46,8-10.2,13.41-16.13,19.43C637,258.22,626.69,268.63,620.14,282c-1,2.13-2.27,4.08-.11,6.33,1.11,1.16.9,2.94.47,4.31-2.17,6.93,0,13,3.21,19A45.3,45.3,0,0,1,623.69,324.66Z"/><path class="cls-1" d="M633.75,367.21c5.79-6,2.71-14.24,5.35-21.09,1.37-3.56,3-5.57,7-5.74,3.74-.15,6.83-2.8,8.45-5.53,2.34-4,6.17-7.13,7-11.94a2.44,2.44,0,0,1,2.28-2.27,2.75,2.75,0,0,1,2.76,1.79c2,4.81,3.87,9.88,2.22,15-5.28,16.39-10.7,32.74-16.61,48.91-1.77,4.82-7.09,4.73-11.61,4.92-4.09.18-4.81-2.87-5.59-5.8-.47-1.75-.76-3.55-1.12-5.33A57.46,57.46,0,0,0,633.75,367.21Z"/><path class="cls-2" d="M633.75,367.21a22.4,22.4,0,0,1,.1,12.9A43.26,43.26,0,0,1,633.75,367.21Z"/><path class="cls-3" d="M623.69,324.66q0-6.49,0-13C626.09,316,625.06,320.33,623.69,324.66Z"/><path class="cls-4" d="M395.48,90.86c-.36,2.76,1.31,5.8-1.12,8.28C395,96.42,393.38,93.39,395.48,90.86Z"/><path class="cls-5" d="M470.05,485.34a239.74,239.74,0,0,0,45.37,4.31c131.72,0,238.5-106.78,238.5-238.5S647.14,12.65,515.42,12.65c-107,0-197.58,70.49-227.77,167.57"/><g class="cls-6"><path d="M10.21,427.82H0V394.65H2.11v31.2h8.1Zm20-10.29h-17a10.11,10.11,0,0,0,2,6.57,6.77,6.77,0,0,0,5.46,2.3A8,8,0,0,0,25,425.3,8.22,8.22,0,0,0,28,422l1.72.88A10.39,10.39,0,0,1,26,426.94a10,10,0,0,1-5.26,1.31,8.73,8.73,0,0,1-6.94-2.88,11.51,11.51,0,0,1-2.51-7.84A10.76,10.76,0,0,1,14,410,8.77,8.77,0,0,1,20.77,407a9.13,9.13,0,0,1,6.88,2.69,9.94,9.94,0,0,1,2.6,7.22Zm-2.13-1.87a7,7,0,0,0-2.2-4.9,7.25,7.25,0,0,0-5.15-1.87,7.18,7.18,0,0,0-5,1.88,7.27,7.27,0,0,0-2.35,4.91Zm40.18,1.78a11.39,11.39,0,0,1-2.63,7.82,8.64,8.64,0,0,1-6.8,3,9.35,9.35,0,0,1-4.69-1.11,8.79,8.79,0,0,1-3.25-3.41v15.51h-2V407.49h2v3.65a8.2,8.2,0,0,1,3.21-3.07,9.79,9.79,0,0,1,4.61-1,9,9,0,0,1,6.91,2.87A10.65,10.65,0,0,1,68.29,417.44Zm-2,0a8.91,8.91,0,0,0-2.14-6.26,7.37,7.37,0,0,0-5.7-2.33,7.12,7.12,0,0,0-5.55,2.21,8.81,8.81,0,0,0-2,6.14,9.77,9.77,0,0,0,2.18,6.64,7.12,7.12,0,0,0,5.64,2.51,6.88,6.88,0,0,0,5.48-2.45A9.57,9.57,0,0,0,66.31,417.48ZM91.6,427.82h-2v-3.87a9,9,0,0,1-3.28,3.25,9.32,9.32,0,0,1-4.54,1,9,9,0,0,1-6.91-2.86,10.61,10.61,0,0,1-2.65-7.52A11.43,11.43,0,0,1,74.88,410a8.61,8.61,0,0,1,6.78-3,10.13,10.13,0,0,1,4.84,1,8.1,8.1,0,0,1,3.13,3.32v-3.87h2Zm-2-10.21a9.11,9.11,0,0,0-2.14-6.37,7.31,7.31,0,0,0-5.68-2.35,6.87,6.87,0,0,0-5.48,2.46,9.62,9.62,0,0,0-2.11,6.48,8.87,8.87,0,0,0,2.14,6.25,7.38,7.38,0,0,0,5.7,2.32A6.9,6.9,0,0,0,87.57,424,9.48,9.48,0,0,0,89.62,417.61Zm17.88-10.12-.67,1.85a2.29,2.29,0,0,0-.75-.33,3.64,3.64,0,0,0-.92-.12,3.78,3.78,0,0,0-3.6,2.48q-1.15,2.48-1.15,7.64v8.81h-2V407.49h2v3.24a5.73,5.73,0,0,1,1.93-2.83,5.45,5.45,0,0,1,3.22-.87,4.57,4.57,0,0,1,1,.12A3.46,3.46,0,0,1,107.5,407.49Zm9.76,1.85h-3.74v18.48h-2V409.34h-2.81v-1.85h2.81v-8.72h2v8.72h3.74Zm20.44,8.19h-17a10.11,10.11,0,0,0,2,6.57,6.77,6.77,0,0,0,5.46,2.3,8,8,0,0,0,4.28-1.1,8.22,8.22,0,0,0,2.94-3.33l1.72.88a10.39,10.39,0,0,1-3.67,4.08,10,10,0,0,1-5.26,1.31,8.73,8.73,0,0,1-6.94-2.88,11.51,11.51,0,0,1-2.51-7.84,10.76,10.76,0,0,1,2.69-7.54,8.77,8.77,0,0,1,6.77-2.94,9.13,9.13,0,0,1,6.87,2.69,9.94,9.94,0,0,1,2.6,7.22Zm-2.13-1.87a7,7,0,0,0-2.2-4.9,7.25,7.25,0,0,0-5.15-1.87,7.18,7.18,0,0,0-5,1.88,7.27,7.27,0,0,0-2.35,4.91Zm21.73,12.16h-2V415.18a7.82,7.82,0,0,0-1.17-4.8,4.55,4.55,0,0,0-3.81-1.49,5.08,5.08,0,0,0-4.57,2.19q-1.45,2.19-1.45,7v9.78h-2V407.49h2v3.39a6.55,6.55,0,0,1,2.51-2.93,7.69,7.69,0,0,1,4-.91,6.07,6.07,0,0,1,4.76,2,7.79,7.79,0,0,1,1.75,5.39Zm24.34,0h-2v-3.87a9,9,0,0,1-3.28,3.25,9.32,9.32,0,0,1-4.54,1,9,9,0,0,1-6.91-2.86,10.61,10.61,0,0,1-2.65-7.52,11.43,11.43,0,0,1,2.63-7.83,8.61,8.61,0,0,1,6.78-3,10.13,10.13,0,0,1,4.84,1,8.1,8.1,0,0,1,3.13,3.32v-3.87h2Zm-2-10.21a9.11,9.11,0,0,0-2.14-6.37,7.31,7.31,0,0,0-5.68-2.35,6.87,6.87,0,0,0-5.48,2.46,9.62,9.62,0,0,0-2.11,6.48,8.87,8.87,0,0,0,2.14,6.25,7.38,7.38,0,0,0,5.7,2.32,6.9,6.9,0,0,0,5.51-2.38A9.48,9.48,0,0,0,179.67,417.61Zm3.27,42.68-9.15,21.12-9.2-21.12h2.21l7,16.63,7-16.63Zm22.17,10.08a10.33,10.33,0,0,1-3.09,7.56,10.2,10.2,0,0,1-7.52,3.12,10,10,0,0,1-7.4-3.12,10.39,10.39,0,0,1-3.06-7.56,10.18,10.18,0,0,1,3-7.48,10.08,10.08,0,0,1,7.42-3.05,10.3,10.3,0,0,1,7.55,3A10.14,10.14,0,0,1,205.11,470.36Zm-2,0a8.53,8.53,0,0,0-2.46-6.21,8.16,8.16,0,0,0-6.07-2.51,8.24,8.24,0,0,0-6.09,2.5,9,9,0,0,0,0,12.46,8.48,8.48,0,0,0,12.12,0A8.6,8.6,0,0,0,203.11,470.41Zm-11.24-70.3a1.68,1.68,0,0,1-.53,1.25,1.76,1.76,0,1,1,0-2.49A1.68,1.68,0,0,1,191.87,400.1Zm-.75,27.71h-2V407.49h2Zm16.71-20.32-.67,1.85a2.28,2.28,0,0,0-.75-.33,3.64,3.64,0,0,0-.92-.12,3.78,3.78,0,0,0-3.6,2.48q-1.15,2.48-1.15,7.64v8.81h-2V407.49h2v3.24a5.73,5.73,0,0,1,1.93-2.83,5.45,5.45,0,0,1,3.22-.87,4.57,4.57,0,0,1,1,.12A3.46,3.46,0,0,1,207.83,407.49Zm12.81,67.79a5.13,5.13,0,0,1-1.91,4.2,8,8,0,0,1-5.22,1.56,8.3,8.3,0,0,1-4.18-1,6,6,0,0,1-2.59-2.86l1.8-1a4.94,4.94,0,0,0,2,2.3,6.54,6.54,0,0,0,3.28.73,5.67,5.67,0,0,0,3.48-1,3.19,3.19,0,0,0,1.35-2.69,3.36,3.36,0,0,0-1.07-2.73,15,15,0,0,0-4.25-2,9.72,9.72,0,0,1-3.92-2.35,4.76,4.76,0,0,1-1.36-3.36,4.86,4.86,0,0,1,1.56-3.79,6.27,6.27,0,0,1,9.89,2.07l-1.8,1a4.57,4.57,0,0,0-1.57-2,4.25,4.25,0,0,0-2.38-.62,3.82,3.82,0,0,0-2.69.92,3.13,3.13,0,0,0-1,2.43,3.17,3.17,0,0,0,1,2.32,7.39,7.39,0,0,0,3,1.63,14.27,14.27,0,0,1,5.11,2.59A4.83,4.83,0,0,1,220.64,475.28Zm6.12-57.76h-17a10.12,10.12,0,0,0,2,6.57,6.77,6.77,0,0,0,5.46,2.3,8,8,0,0,0,4.28-1.1A8.22,8.22,0,0,0,224.5,422l1.72.88a10.39,10.39,0,0,1-3.67,4.08,10,10,0,0,1-5.26,1.31,8.73,8.73,0,0,1-6.94-2.88,11.51,11.51,0,0,1-2.51-7.84,10.76,10.76,0,0,1,2.69-7.54,8.77,8.77,0,0,1,6.77-2.94,9.13,9.13,0,0,1,6.87,2.69,9.94,9.94,0,0,1,2.6,7.22Zm-2.13-1.87a7,7,0,0,0-2.2-4.9,7.25,7.25,0,0,0-5.15-1.87,7.18,7.18,0,0,0-5,1.88,7.27,7.27,0,0,0-2.35,4.91Zm20.6,46.48H241.5v18.48h-2V462.14H236.7v-1.85h2.81v-8.72h2v8.72h3.74Zm3.83-62a1.68,1.68,0,0,1-.53,1.25,1.76,1.76,0,1,1,0-2.49A1.68,1.68,0,0,1,249.06,400.1Zm-.75,27.71h-2V407.49h2Zm9.52,32.47-.67,1.85a2.29,2.29,0,0,0-.75-.33,3.64,3.64,0,0,0-.92-.12,3.78,3.78,0,0,0-3.6,2.48q-1.15,2.48-1.15,7.64v8.81h-2V460.29h2v3.24a5.73,5.73,0,0,1,1.93-2.83,5.45,5.45,0,0,1,3.22-.87,4.57,4.57,0,0,1,1,.12A3.46,3.46,0,0,1,257.83,460.29ZM273,427.82h-2v-3.87a9,9,0,0,1-3.28,3.25,9.32,9.32,0,0,1-4.54,1,9,9,0,0,1-6.91-2.86,10.61,10.61,0,0,1-2.65-7.52,11.43,11.43,0,0,1,2.63-7.83,8.61,8.61,0,0,1,6.78-3,10,10,0,0,1,4.93,1,8.44,8.44,0,0,1,3,3.31V391.51h2Zm-2-10.21a9.12,9.12,0,0,0-2.14-6.37,7.31,7.31,0,0,0-5.68-2.35,6.87,6.87,0,0,0-5.48,2.46,9.62,9.62,0,0,0-2.11,6.48,8.87,8.87,0,0,0,2.14,6.25,7.38,7.38,0,0,0,5.7,2.32,6.9,6.9,0,0,0,5.51-2.38A9.48,9.48,0,0,0,271,417.61Zm6.34,63h-2v-3.87a9,9,0,0,1-3.28,3.25,9.32,9.32,0,0,1-4.54,1,9,9,0,0,1-6.91-2.86,10.61,10.61,0,0,1-2.65-7.52,11.43,11.43,0,0,1,2.63-7.83,8.61,8.61,0,0,1,6.78-3,10.13,10.13,0,0,1,4.84,1,8.1,8.1,0,0,1,3.13,3.32v-3.87h2Zm-2-10.21A9.11,9.11,0,0,0,273.2,464a7.31,7.31,0,0,0-5.68-2.35,6.87,6.87,0,0,0-5.48,2.46,9.62,9.62,0,0,0-2.11,6.48,8.87,8.87,0,0,0,2.14,6.25,7.38,7.38,0,0,0,5.7,2.32,6.9,6.9,0,0,0,5.51-2.38A9.48,9.48,0,0,0,275.34,470.41Zm21.61-52.88H280a10.11,10.11,0,0,0,2,6.57,6.77,6.77,0,0,0,5.46,2.3,8,8,0,0,0,4.28-1.1,8.22,8.22,0,0,0,2.94-3.33l1.72.88a10.39,10.39,0,0,1-3.67,4.08,10,10,0,0,1-5.26,1.31,8.73,8.73,0,0,1-6.94-2.88,11.51,11.51,0,0,1-2.51-7.84,10.76,10.76,0,0,1,2.69-7.54,8.77,8.77,0,0,1,6.77-2.94,9.13,9.13,0,0,1,6.88,2.69,9.94,9.94,0,0,1,2.6,7.22Zm-2.13-1.87a7,7,0,0,0-2.2-4.9,7.25,7.25,0,0,0-5.15-1.87,7.18,7.18,0,0,0-5,1.88,7.27,7.27,0,0,0-2.35,4.91Zm6.88,65h-2v-3.87a9,9,0,0,1-3.28,3.25,9.32,9.32,0,0,1-4.54,1,9,9,0,0,1-6.91-2.86,10.61,10.61,0,0,1-2.65-7.52,11.43,11.43,0,0,1,2.63-7.83,8.61,8.61,0,0,1,6.78-3,10,10,0,0,1,4.93,1,8.44,8.44,0,0,1,3,3.31V444.3h2Zm-2-10.21a9.12,9.12,0,0,0-2.14-6.37,7.31,7.31,0,0,0-5.68-2.35,6.87,6.87,0,0,0-5.48,2.46,9.62,9.62,0,0,0-2.11,6.48,8.87,8.87,0,0,0,2.14,6.25,7.38,7.38,0,0,0,5.7,2.32,6.9,6.9,0,0,0,5.51-2.38A9.48,9.48,0,0,0,299.72,470.41Zm-8.14-71.72-5.07,6.64-1.14-.86,4.79-6.83ZM320,427.82h-2v-3.87a9,9,0,0,1-3.28,3.25,9.32,9.32,0,0,1-4.54,1,9,9,0,0,1-6.91-2.86,10.61,10.61,0,0,1-2.65-7.52A11.43,11.43,0,0,1,303.3,410a8.61,8.61,0,0,1,6.78-3,10.13,10.13,0,0,1,4.84,1,8.1,8.1,0,0,1,3.13,3.32v-3.87h2Zm-2-10.21a9.11,9.11,0,0,0-2.14-6.37,7.31,7.31,0,0,0-5.68-2.35,6.87,6.87,0,0,0-5.48,2.46,9.62,9.62,0,0,0-2.11,6.48,8.87,8.87,0,0,0,2.14,6.25,7.38,7.38,0,0,0,5.7,2.32A6.9,6.9,0,0,0,316,424,9.48,9.48,0,0,0,318,417.61Zm4.43,54.6q0,4.68-1.69,6.76t-5.4,2.07q-3.67,0-5.37-2.13t-1.7-6.7V460.29h2v11.34q0,4.06,1.13,5.81t4,1.75q2.9,0,4-1.72t1.11-5.84V460.29h2Zm6.23-44.4h-2V391.51h2Zm15.92,51.74a12.66,12.66,0,0,1-3.18,1.12,17.77,17.77,0,0,1-3.7.37,10.07,10.07,0,0,1-7.47-2.93,10.23,10.23,0,0,1-2.91-7.53,10.38,10.38,0,0,1,3-7.77,10.84,10.84,0,0,1,7.92-3,12.38,12.38,0,0,1,3.09.38,12.7,12.7,0,0,1,2.86,1.13v2a12.55,12.55,0,0,0-2.91-1.25,11.25,11.25,0,0,0-3.08-.43,8.76,8.76,0,0,0-6.53,2.44,9,9,0,0,0-2.41,6.63,8,8,0,0,0,2.5,6.07,9,9,0,0,0,6.43,2.37,13.12,13.12,0,0,0,3.39-.42,10.77,10.77,0,0,0,2.94-1.28Zm10.7-17.42h-3.74v18.48h-2V462.14H346.8v-1.85h2.81v-8.72h2v8.72h3.74Zm13.09-44.7a11.39,11.39,0,0,1-2.63,7.82,8.64,8.64,0,0,1-6.8,3,9.35,9.35,0,0,1-4.69-1.11,8.79,8.79,0,0,1-3.25-3.41v15.51h-2V407.49h2v3.65a8.2,8.2,0,0,1,3.21-3.07,9.79,9.79,0,0,1,4.61-1,9,9,0,0,1,6.91,2.87A10.65,10.65,0,0,1,368.42,417.44Zm-2,0a8.91,8.91,0,0,0-2.14-6.26,7.37,7.37,0,0,0-5.7-2.33A7.12,7.12,0,0,0,353,411.1a8.81,8.81,0,0,0-2,6.14,9.77,9.77,0,0,0,2.18,6.64,7.12,7.12,0,0,0,5.64,2.51,6.88,6.88,0,0,0,5.48-2.45A9.57,9.57,0,0,0,366.44,417.48Zm-4.2,35.41a1.68,1.68,0,0,1-.53,1.25,1.76,1.76,0,1,1,0-2.49A1.68,1.68,0,0,1,362.23,452.9Zm-.75,27.71h-2V460.29h2Zm26.15-10.25a10.33,10.33,0,0,1-3.09,7.56A10.2,10.2,0,0,1,377,481a10,10,0,0,1-7.4-3.12,10.39,10.39,0,0,1-3.06-7.56,10.18,10.18,0,0,1,3-7.48,10.08,10.08,0,0,1,7.42-3.05,10.3,10.3,0,0,1,7.55,3A10.14,10.14,0,0,1,387.63,470.36Zm-2,0a8.53,8.53,0,0,0-2.46-6.21,8.16,8.16,0,0,0-6.07-2.51,8.25,8.25,0,0,0-6.09,2.5,9,9,0,0,0,0,12.46,8.48,8.48,0,0,0,12.12,0A8.6,8.6,0,0,0,385.63,470.41ZM393,417.57a10.33,10.33,0,0,1-3.09,7.56,10.2,10.2,0,0,1-7.52,3.12,10,10,0,0,1-7.4-3.12,10.39,10.39,0,0,1-3.06-7.56,10.18,10.18,0,0,1,3-7.48,10.08,10.08,0,0,1,7.42-3.05,10.3,10.3,0,0,1,7.55,3A10.14,10.14,0,0,1,393,417.57Zm-2,0a8.53,8.53,0,0,0-2.46-6.21,8.16,8.16,0,0,0-6.07-2.51,8.25,8.25,0,0,0-6.09,2.5,9,9,0,0,0,0,12.46,8.48,8.48,0,0,0,12.12,0A8.6,8.6,0,0,0,391,417.61Zm16.42,63h-2V468a7.82,7.82,0,0,0-1.17-4.8,4.55,4.55,0,0,0-3.81-1.49,5.08,5.08,0,0,0-4.57,2.19q-1.45,2.19-1.45,7v9.78h-2V460.29h2v3.39a6.55,6.55,0,0,1,2.51-2.93,7.69,7.69,0,0,1,4-.91,6.07,6.07,0,0,1,4.76,2,7.79,7.79,0,0,1,1.75,5.39Zm4.29-61.2q0,4.68-1.69,6.76t-5.4,2.07q-3.67,0-5.37-2.13t-1.7-6.7V407.49h2v11.34q0,4.06,1.13,5.81t4,1.75q2.9,0,4-1.72t1.11-5.84V407.49h2Zm13.77,55.87a5.13,5.13,0,0,1-1.91,4.2A8,8,0,0,1,418.3,481a8.3,8.3,0,0,1-4.18-1,6,6,0,0,1-2.59-2.86l1.8-1a4.94,4.94,0,0,0,2,2.3,6.55,6.55,0,0,0,3.28.73,5.67,5.67,0,0,0,3.48-1,3.19,3.19,0,0,0,1.35-2.69,3.36,3.36,0,0,0-1.07-2.73,15,15,0,0,0-4.25-2,9.72,9.72,0,0,1-3.92-2.35,4.76,4.76,0,0,1-1.36-3.36,4.86,4.86,0,0,1,1.56-3.79,6.27,6.27,0,0,1,9.89,2.07l-1.8,1a4.57,4.57,0,0,0-1.57-2,4.25,4.25,0,0,0-2.38-.62,3.82,3.82,0,0,0-2.69.92,3.13,3.13,0,0,0-1,2.43,3.18,3.18,0,0,0,1,2.32,7.39,7.39,0,0,0,3,1.63,14.27,14.27,0,0,1,5.11,2.59A4.83,4.83,0,0,1,425.43,475.28Zm2.12-67.79-.67,1.85a2.29,2.29,0,0,0-.75-.33,3.64,3.64,0,0,0-.92-.12,3.78,3.78,0,0,0-3.6,2.48q-1.15,2.48-1.15,7.64v8.81h-2V407.49h2v3.24a5.73,5.73,0,0,1,1.93-2.83,5.45,5.45,0,0,1,3.22-.87,4.57,4.57,0,0,1,1,.12A3.46,3.46,0,0,1,427.55,407.49Z"/></g><polygon points="258.94 274.69 253.46 274.69 253.46 298.88 245.65 298.88 245.65 304 253.46 304 253.46 355.23 258.94 355.23 258.94 304 269.3 304 269.3 298.88 258.94 298.88 258.94 274.69"/><path d="M298.85,297.63a15.11,15.11,0,0,0-8.94,2.41q-3.4,2.41-5.36,7.83v-9h-5.48v56.35h5.48V330.81q0-14.3,3.19-21.18t10-6.88a10.1,10.1,0,0,1,2.56.33,6.34,6.34,0,0,1,2.08.92l1.85-5.12a9.6,9.6,0,0,0-2.47-.92A12.68,12.68,0,0,0,298.85,297.63Z"/><path d="M420.37,254.56v55a23.41,23.41,0,0,0-8.43-9.17q-4.86-2.8-13.67-2.8a23.87,23.87,0,0,0-18.79,8.31q-7.3,8.31-7.3,21.71,0,12.93,7.36,20.85t19.15,7.92a25.85,25.85,0,0,0,12.6-2.89,25,25,0,0,0,9.08-9v10.72h5.48V254.56Zm-5.69,90.13Q409,351.3,399.4,351.3q-9.89,0-15.82-6.43t-5.93-17.33q0-11.14,5.84-18a19,19,0,0,1,15.19-6.82q9.83,0,15.76,6.52t5.93,17.66Q420.37,338.08,414.68,344.69Z"/><path d="M352.76,309.6a22.46,22.46,0,0,0-8.67-9.2q-5.09-2.77-13.43-2.77a23.87,23.87,0,0,0-18.79,8.31q-7.3,8.31-7.3,21.71,0,12.93,7.36,20.85t19.15,7.92a25.85,25.85,0,0,0,12.6-2.89,25,25,0,0,0,9.08-9v10.72h5.48V298.88h-5.48Zm-5.69,35.09q-5.69,6.61-15.28,6.61-9.89,0-15.82-6.43T310,327.53q0-11.14,5.84-18a19,19,0,0,1,15.19-6.82q9.83,0,15.76,6.52t5.93,17.66Q352.76,338.08,347.07,344.69Z"/><path class="cls-1" d="M171,281.2a7.18,7.18,0,1,0-5.12-12.27A7.18,7.18,0,0,0,171,281.2Z"/><path class="cls-1" d="M94.69,354.17h11V306.81h11.08V297.1H105.65V275.6q0-8,1.28-11t5.45-2.92a11.4,11.4,0,0,1,2.23.21,8.45,8.45,0,0,1,2.11.74v-9.89a19.67,19.67,0,0,0-2.74-.63,19.9,19.9,0,0,0-3-.21q-8.76,0-12.54,5.39t-3.78,17.9V297.1h-7.8v9.71h7.8Z"/><path class="cls-1" d="M44.12,259.51.57,354.17H13.26L24.93,327.6H63.12l11.74,26.57H87.54ZM29.34,317.83l14.77-33.42,14.77,33.42Z"/><path class="cls-1" d="M135.74,329.51q0-11.79,3.72-17.78a12.13,12.13,0,0,1,11-6,10.71,10.71,0,0,1,2.77.36,8.79,8.79,0,0,1,2.53,1.13l2.26-11a8.87,8.87,0,0,0-2.29-.77,14.17,14.17,0,0,0-2.95-.3q-6.79,0-10.93,2.95t-6.11,9.26V297.1h-11v57.07h11Z"/><rect class="cls-1" x="165.52" y="297.1" width="10.96" height="57.07"/><path class="cls-1" d="M218.35,356.13a38.84,38.84,0,0,0,9.08-1,32,32,0,0,0,7.89-3.07V340.41a23.83,23.83,0,0,1-7.18,3.87,25.94,25.94,0,0,1-8.43,1.37q-9.59,0-15.34-5.36T198.64,326q0-9.35,5.69-14.86t15.4-5.51A23.81,23.81,0,0,1,227.5,307a27.1,27.1,0,0,1,7.24,3.78V299a32.3,32.3,0,0,0-7.42-2.95,33,33,0,0,0-8.07-.92q-14.24,0-22.93,8.46t-8.7,22.16q0,13.52,8.52,22T218.35,356.13Z"/></svg>