<?xml version="1.0" encoding="UTF-8"?>
<svg width="467px" height="477px" viewBox="0 0 467 477" version="1.1" xmlns="http://www.w3.org/2000/svg" xmlns:xlink="http://www.w3.org/1999/xlink">
    <!-- Generator: Sketch 46.2 (44496) - http://www.bohemiancoding.com/sketch -->
    <title>logo-solo</title>
    <desc>Created with Sketch.</desc>
    <defs></defs>
    <g id="Symbols" stroke="none" stroke-width="1" fill="none" fill-rule="evenodd">
        <g id="logo-solo">
            <path d="M346.417586,354.122147 C346.283776,354.27479 346.144656,354.426091 346,354.575993 L346,354.575993 C346.06689,355.118268 346.126019,355.661278 346.177385,356.204856 C345.902016,359.236262 345.947311,362.288876 346.312876,365.311883 C346.26583,366.040691 346.204873,366.76886 346.13,367.495993 C346.49,369.275993 346.78,371.075993 347.25,372.825993 C348.03,375.755993 348.75,378.805993 352.84,378.625993 C357.36,378.435993 362.68,378.525993 364.45,373.705993 C370.36,357.535993 375.78,341.185993 381.06,324.795993 C382.71,319.675993 380.84,314.605993 378.84,309.795993 C378.41764,308.654176 377.294796,307.925954 376.08,308.005993 C374.85812,308.083471 373.882848,309.054465 373.8,310.275993 C372.97,315.085993 369.14,318.215993 366.8,322.215993 C365.18,324.945993 362.09,327.595993 358.35,327.745993 C354.35,327.915993 352.72,329.925993 351.35,333.485993 C348.782643,340.147507 351.624831,348.123578 346.458113,354.075689 C346.450408,354.050449 346.442656,354.025219 346.434859,354 L346.434859,354 C346.429043,354.04071 346.423285,354.081426 346.417586,354.122147 Z" id="Combined-Shape" fill="#FEA10C" fill-rule="nonzero"></path>
            <path d="M335.428543,299.853174 C335.379651,299.427136 335.32469,299.001616 335.263658,298.576745 C332.053658,292.576745 329.883658,286.506745 332.053658,279.576745 C332.483658,278.206745 332.693658,276.426745 331.583658,275.266745 C329.423658,273.016745 330.693658,271.066745 331.693658,268.936745 C338.243658,255.566745 348.553658,245.156745 358.933658,234.726745 C364.863658,228.706745 371.603658,223.296745 375.063658,215.296745 C377.363658,209.966745 379.473658,204.566745 381.953658,199.296745 C383.833658,195.306745 385.543658,191.026745 385.753658,186.496745 C385.883658,183.596745 385.073658,180.886745 381.193658,181.886745 C373.523658,183.866745 366.083658,186.686745 358.083658,187.346745 C353.753658,187.696745 349.503658,186.386745 348.503658,182.206745 C346.673658,174.556745 341.113658,170.146745 335.503658,165.756745 C332.393658,163.326745 330.063658,160.776745 328.853658,156.846745 C327.813658,153.456745 326.443658,150.086745 323.523658,147.456745 C320.785518,144.915853 319.255178,141.331731 319.313658,137.596745 C319.283658,134.286745 318.533658,130.766745 316.413658,128.766745 C310.033658,122.856745 309.633658,113.806745 304.313658,107.446745 C303.075591,105.887051 302.139559,104.109946 301.553658,102.206745 C301.013658,100.566745 300.023658,99.066745 302.423658,97.146745 C306.493658,93.856745 305.183658,89.276745 303.803658,84.856745 C302.523658,80.716745 300.043658,79.286745 295.953658,80.186745 C294.593658,80.486745 293.373658,79.876745 292.083658,79.566745 C288.003658,78.596745 283.933658,77.826745 280.083658,80.436745 C278.633192,81.33865 276.840637,81.4982356 275.253658,80.866745 C266.793658,78.036745 257.823658,76.846745 249.973658,72.036745 C244.463658,68.666745 237.123658,73.396745 237.383658,79.796745 C237.503658,82.656745 236.193658,85.176745 233.593658,84.016745 C228.493658,81.746745 222.333658,81.226745 218.593658,76.536745 C215.593658,72.786745 211.593658,71.546745 207.253658,71.236745 C203.203658,70.986745 199.953658,69.186745 196.783658,66.986745 C195.783658,66.246745 194.473658,64.986745 195.423658,64.246745 C199.533658,61.036745 197.353658,57.746745 196.923658,53.816745 C196.423658,49.336745 194.633658,48.726745 191.373658,49.086745 C185.783658,49.706745 180.213658,50.696745 174.563658,50.336745 C163.783658,49.646745 153.843658,52.356745 144.413658,57.416745 C139.521171,60.2140728 133.497195,60.1413565 128.673658,57.226745 C124.723658,54.866745 123.603658,56.366745 121.863658,59.426745 C120.273658,62.206745 119.593658,65.806745 116.023658,67.206745 C111.153658,69.116745 108.503658,72.946745 107.083658,77.796745 C105.903658,80.446745 107.733658,83.506745 105.963658,86.076745 C103.873658,89.026745 102.403658,92.846745 98.8736576,94.156745 C92.8136576,96.406745 89.2136576,101.126745 85.8136576,106.016745 C83.5536576,109.266745 82.0536576,113.026745 80.1836576,116.546745 C76.4036576,123.656745 71.4236576,129.766745 74.8036576,139.386745 C77.8036576,147.786745 76.0736576,157.066745 70.8036576,165.066745 C69.9136576,166.416745 69.6336576,168.296745 70.6336576,169.296745 C73.1636576,171.856745 73.3736576,174.816745 73.0736576,178.046745 C72.8936576,179.956745 74.0236576,181.116745 75.4436576,182.116745 C80.6436576,185.926745 84.0836576,191.316745 87.3536576,196.616745 C89.0136576,199.296745 89.2136576,202.876745 91.9236576,205.196745 C97.2336576,209.736745 102.443658,214.386745 107.693658,218.996745 C111.953658,222.726745 116.543658,223.096745 121.493658,220.446745 C126.443658,217.796745 131.533658,216.366745 137.223658,218.946745 C139.543658,219.986745 142.363658,219.536745 144.953658,218.256745 C149.113658,216.196745 153.393658,214.356745 157.713658,212.666745 C165.573658,209.606745 170.313658,210.586745 173.623658,216.816745 C176.213658,221.696745 179.063658,223.046745 184.353658,221.226745 C189.073658,219.596745 195.773658,225.506745 194.663658,230.346745 C193.663658,234.726745 194.073658,239.536745 192.073658,243.456745 C189.193658,249.096745 190.993658,253.246745 194.523658,257.456745 C196.013658,259.236745 197.183658,261.296745 198.703658,263.046745 C208.893658,274.816745 209.453658,289.706745 211.983658,303.946745 C212.09645,304.941249 211.82057,305.940869 211.213658,306.736745 C208.383658,310.166745 207.453658,314.406745 205.783658,318.356745 C202.103658,327.076745 199.763658,335.986745 205.233658,344.536745 C212.913658,356.536745 215.613658,369.766745 216.743658,383.596745 C216.835059,385.609225 217.532164,387.547176 218.743658,389.156745 C221.337501,392.420292 223.34714,396.108013 224.683658,400.056745 C226.243658,404.696745 229.753658,409.096745 228.683658,414.176745 C227.913658,417.836745 227.053658,421.456745 230.053658,423.836745 C233.343658,426.516745 237.233658,428.676745 241.943658,425.836745 C244.454591,424.457996 247.321943,423.865712 250.173658,424.136745 C262.003658,424.936745 271.343658,420.216745 279.503658,411.936745 C283.74473,407.702726 287.618644,403.116253 291.083658,398.226745 C293.733658,394.436745 296.633658,390.396745 296.733658,385.646745 C296.843658,380.506745 299.013658,377.166745 303.623658,375.926745 C308.983658,374.486745 309.983658,370.736745 310.133658,366.156745 C310.282011,363.168755 309.944284,360.176498 309.133658,357.296745 C308.323658,354.516745 306.923658,350.976745 309.383658,348.706745 C314.273658,344.236745 318.073658,338.596745 324.273658,335.596745 C326.518144,334.53377 328.618327,333.189652 330.523658,331.596745 C337.103658,326.026745 337.033658,319.046745 335.243658,311.596745 C335.278178,311.361571 335.310837,311.126193 335.341635,310.890632 C336.436407,307.214135 337.095831,303.537023 335.428543,299.853174 Z" id="Combined-Shape" fill="#FEA10C" fill-rule="nonzero"></path>
            <path d="M182.4,472.69 C197.352157,475.564131 212.544115,477.007317 227.77,477 C359.49,477 466.27,370.22 466.27,238.5 C466.27,106.78 359.49,0 227.77,0 C120.77,0 30.19,70.49 0,167.57" id="Shape" stroke="#0B0B0B" stroke-width="2"></path>
        </g>
    </g>
</svg>